<?xml version="1.0" encoding="UTF-8" standalone="no" ?>
<!DOCTYPE svg PUBLIC "-//W3C//DTD SVG 1.1//EN" "http://www.w3.org/Graphics/SVG/1.1/DTD/svg11.dtd">
<svg xmlns="http://www.w3.org/2000/svg" xmlns:xlink="http://www.w3.org/1999/xlink" version="1.1" width="119" height="118" viewBox="0 0 119 118" xml:space="preserve">
<desc>Created with Fabric.js 3.6.3</desc>
<defs>
</defs>
<g transform="matrix(1.44 0 0 1.44 59.94 59.69)"  >
<circle style="stroke: rgb(0,0,0); stroke-width: 0; stroke-dasharray: none; stroke-linecap: butt; stroke-dashoffset: 0; stroke-linejoin: miter; stroke-miterlimit: 4; fill: rgb(255,255,255); fill-rule: nonzero; opacity: 1;"  cx="0" cy="0" r="40" />
</g>
<g transform="matrix(0.98 0 0 0.98 59.72 57.72)"  >
<g style=""   >
		<g transform="matrix(1 0 0 1 0 0)"  >
<path style="stroke: none; stroke-width: 1; stroke-dasharray: none; stroke-linecap: butt; stroke-dashoffset: 0; stroke-linejoin: miter; stroke-miterlimit: 4; fill: rgb(24,22,22); fill-rule: evenodd; opacity: 1;"  transform=" translate(-64, -64)" d="M 64 5.103 c -33.347 0 -60.388 27.035 -60.388 60.388 c 0 26.682 17.303 49.317 41.297 57.303 c 3.017 0.56 4.125 -1.31 4.125 -2.905 c 0 -1.44 -0.056 -6.197 -0.082 -11.243 c -16.8 3.653 -20.345 -7.125 -20.345 -7.125 c -2.747 -6.98 -6.705 -8.836 -6.705 -8.836 c -5.48 -3.748 0.413 -3.67 0.413 -3.67 c 6.063 0.425 9.257 6.223 9.257 6.223 c 5.386 9.23 14.127 6.562 17.573 5.02 c 0.542 -3.903 2.107 -6.568 3.834 -8.076 c -13.413 -1.525 -27.514 -6.704 -27.514 -29.843 c 0 -6.593 2.36 -11.98 6.223 -16.21 c -0.628 -1.52 -2.695 -7.662 0.584 -15.98 c 0 0 5.07 -1.623 16.61 6.19 C 53.7 35 58.867 34.327 64 34.304 c 5.13 0.023 10.3 0.694 15.127 2.033 c 11.526 -7.813 16.59 -6.19 16.59 -6.19 c 3.287 8.317 1.22 14.46 0.593 15.98 c 3.872 4.23 6.215 9.617 6.215 16.21 c 0 23.194 -14.127 28.3 -27.574 29.796 c 2.167 1.874 4.097 5.55 4.097 11.183 c 0 8.08 -0.07 14.583 -0.07 16.572 c 0 1.607 1.088 3.49 4.148 2.897 c 23.98 -7.994 41.263 -30.622 41.263 -57.294 C 124.388 32.14 97.35 5.104 64 5.104 z" stroke-linecap="round" />
</g>
		<g transform="matrix(1 0 0 1 -27.25 33.69)"  >
<path style="stroke: none; stroke-width: 1; stroke-dasharray: none; stroke-linecap: butt; stroke-dashoffset: 0; stroke-linejoin: miter; stroke-miterlimit: 4; fill: rgb(24,22,22); fill-rule: nonzero; opacity: 1;"  transform=" translate(-36.74, -97.69)" d="M 26.484 91.806 c -0.133 0.3 -0.605 0.39 -1.035 0.185 c -0.44 -0.196 -0.685 -0.605 -0.543 -0.906 c 0.13 -0.31 0.603 -0.395 1.04 -0.188 c 0.44 0.197 0.69 0.61 0.537 0.91 z m 2.446 2.729 c -0.287 0.267 -0.85 0.143 -1.232 -0.28 c -0.396 -0.42 -0.47 -0.983 -0.177 -1.254 c 0.298 -0.266 0.844 -0.14 1.24 0.28 c 0.394 0.426 0.472 0.984 0.17 1.255 z M 31.312 98.012 c -0.37 0.258 -0.976 0.017 -1.35 -0.52 c -0.37 -0.538 -0.37 -1.183 0.01 -1.44 c 0.373 -0.258 0.97 -0.025 1.35 0.507 c 0.368 0.545 0.368 1.19 -0.01 1.452 z m 3.261 3.361 c -0.33 0.365 -1.036 0.267 -1.552 -0.23 c -0.527 -0.487 -0.674 -1.18 -0.343 -1.544 c 0.336 -0.366 1.045 -0.264 1.564 0.23 c 0.527 0.486 0.686 1.18 0.333 1.543 z m 4.5 1.951 c -0.147 0.473 -0.825 0.688 -1.51 0.486 c -0.683 -0.207 -1.13 -0.76 -0.99 -1.238 c 0.14 -0.477 0.823 -0.7 1.512 -0.485 c 0.683 0.206 1.13 0.756 0.988 1.237 z m 4.943 0.361 c 0.017 0.498 -0.563 0.91 -1.28 0.92 c -0.723 0.017 -1.308 -0.387 -1.315 -0.877 c 0 -0.503 0.568 -0.91 1.29 -0.924 c 0.717 -0.013 1.306 0.387 1.306 0.88 z m 4.598 -0.782 c 0.086 0.485 -0.413 0.984 -1.126 1.117 c -0.7 0.13 -1.35 -0.172 -1.44 -0.653 c -0.086 -0.498 0.422 -0.997 1.122 -1.126 c 0.714 -0.123 1.354 0.17 1.444 0.663 z m 0 0" stroke-linecap="round" />
</g>
</g>
</g>
</svg>