<?xml version="1.0" encoding="UTF-8"?>
<svg id="logosandtypes_com" data-name="logosandtypes com" xmlns="http://www.w3.org/2000/svg" viewBox="0 0 150 150">
  <defs>
    <style>
      .cls-1 {
        fill: #00e1e1;
      }

      .cls-2 {
        fill: none;
      }
    </style>
  </defs>
  <g id="Layer_2" data-name="Layer 2">
    <path id="Layer_3" data-name="Layer 3" class="cls-2" d="M0,0H150V150H0V0Z"/>
  </g>
  <path class="cls-1" d="M137.75,99.44h-.36c-5.71,0-11.75-6.04-11.75-11.75v-.36h-.88v.36c0,5.71-6.04,11.75-11.75,11.75h-.36v.88h.36c5.71,0,11.75,6.04,11.75,11.75v.36h.88v-.36c0-5.71,6.04-11.75,11.75-11.75h.36v-.88Z"/>
  <path class="cls-1" d="M37.34,24.16h-.36c-5.71,0-11.75-6.04-11.75-11.75v-.36h-.86v.36c0,5.71-6.04,11.75-11.75,11.75h-.36v.88h.36c5.71,0,11.75,6.04,11.75,11.75v.36h.88v-.36c0-5.71,6.04-11.75,11.75-11.75h.36v-.88h-.01Z"/>
  <path class="cls-1" d="M37.34,49.25h-.36c-5.71,0-11.75-6.04-11.75-11.75v-.36h-.86v.36c0,5.71-6.04,11.75-11.75,11.75h-.36v.88h.36c5.71,0,11.75,6.04,11.75,11.75v.36h.88v-.36c0-5.71,6.04-11.75,11.75-11.75h.36v-.88h-.01Z"/>
  <path class="cls-1" d="M62.43,49.25h-.36c-5.71,0-11.75-6.04-11.75-11.75v-.36h-.9v.36c0,5.71-6.04,11.75-11.75,11.75h-.36v.88h.36c5.71,0,11.75,6.04,11.75,11.75v.36h.88v-.36c0-5.71,6.04-11.75,11.75-11.75h.36v-.88h.03Z"/>
  <path class="cls-1" d="M37.34,74.35h-.36c-5.71,0-11.75-6.04-11.75-11.75v-.36h-.86v.36c0,5.71-6.04,11.75-11.75,11.75h-.36v.88h.36c5.71,0,11.75,6.04,11.75,11.75v.36h.88v-.36c0-5.71,6.04-11.75,11.75-11.75h.36v-.88h-.01Z"/>
  <path class="cls-1" d="M62.43,74.35h-.36c-5.71,0-11.75-6.04-11.75-11.75v-.36h-.9v.36c0,5.71-6.04,11.75-11.75,11.75h-.36v.88h.36c5.71,0,11.75,6.04,11.75,11.75v.36h.88v-.36c0-5.71,6.04-11.75,11.75-11.75h.36v-.88h.03Z"/>
  <path class="cls-1" d="M87.53,74.35h-.36c-5.71,0-11.75-6.04-11.75-11.75v-.36h-.88v.36c0,5.71-6.04,11.75-11.75,11.75h-.36v.88h.36c5.71,0,11.75,6.04,11.75,11.75v.36h.88v-.36c0-5.71,6.04-11.75,11.75-11.75h.36v-.88Z"/>
  <path class="cls-1" d="M37.34,99.44h-.36c-5.71,0-11.75-6.04-11.75-11.75v-.36h-.86v.36c0,5.71-6.04,11.75-11.75,11.75h-.36v.88h.36c5.71,0,11.75,6.04,11.75,11.75v.36h.88v-.36c0-5.71,6.04-11.75,11.75-11.75h.36v-.88h-.01Z"/>
  <path class="cls-1" d="M62.43,99.44h-.36c-5.71,0-11.75-6.04-11.75-11.75v-.36h-.9v.36c0,5.71-6.04,11.75-11.75,11.75h-.36v.88h.36c5.71,0,11.75,6.04,11.75,11.75v.36h.88v-.36c0-5.71,6.04-11.75,11.75-11.75h.36v-.88h.03Z"/>
  <path class="cls-1" d="M112.62,49.25h-.36c-5.71,0-11.75-6.04-11.75-11.75v-.36h-.88v.36c0,5.71-6.04,11.75-11.75,11.75h-.36v.88h.36c5.71,0,11.75,6.04,11.75,11.75v.36h.88v-.36c0-5.71,6.04-11.75,11.75-11.75h.36v-.88Z"/>
  <path class="cls-1" d="M112.62,74.35h-.36c-5.71,0-11.75-6.04-11.75-11.75v-.36h-.88v.36c0,5.71-6.04,11.75-11.75,11.75h-.36v.88h.36c5.71,0,11.75,6.04,11.75,11.75v.36h.88v-.36c0-5.71,6.04-11.75,11.75-11.75h.36v-.88Z"/>
  <path class="cls-1" d="M112.62,99.44h-.36c-5.71,0-11.75-6.04-11.75-11.75v-.36h-.88v.36c0,5.71-6.04,11.75-11.75,11.75h-.36v.88h.36c5.71,0,11.75,6.04,11.75,11.75v.36h.88v-.36c0-5.71,6.04-11.75,11.75-11.75h.36v-.88Z"/>
  <path class="cls-1" d="M137.75,49.25h-.36c-5.71,0-11.75-6.04-11.75-11.75v-.36h-.88v.36c0,5.71-6.04,11.75-11.75,11.75h-.36v.88h.36c5.71,0,11.75,6.04,11.75,11.75v.36h.88v-.36c0-5.71,6.04-11.75,11.75-11.75h.36v-.88Z"/>
  <path class="cls-1" d="M137.75,24.16h-.36c-5.71,0-11.75-6.04-11.75-11.75v-.36h-.88v.36c0,5.71-6.04,11.75-11.75,11.75h-.36v.88h.36c5.71,0,11.75,6.04,11.75,11.75v.36h.88v-.36c0-5.71,6.04-11.75,11.75-11.75h.36s0-.88,0-.88Z"/>
  <path class="cls-1" d="M137.75,74.35h-.36c-5.71,0-11.75-6.04-11.75-11.75v-.36h-.88v.36c0,5.71-6.04,11.75-11.75,11.75h-.36v.88h.36c5.71,0,11.75,6.04,11.75,11.75v.36h.88v-.36c0-5.71,6.04-11.75,11.75-11.75h.36v-.88Z"/>
  <path class="cls-1" d="M137.75,124.54h-.36c-5.71,0-11.75-6.04-11.75-11.75v-.36h-.88v.36c0,5.71-6.04,11.75-11.75,11.75h-.36v.89h.36c5.71,0,11.75,6.04,11.75,11.75v.36h.88v-.36c0-5.71,6.04-11.75,11.75-11.75h.36v-.89Z"/>
  <path class="cls-1" d="M37.34,124.54h-.36c-5.71,0-11.75-6.04-11.75-11.75v-.36h-.86v.36c0,5.71-6.04,11.75-11.75,11.75h-.36v.89h.36c5.71,0,11.75,6.04,11.75,11.75v.36h.88v-.36c0-5.71,6.04-11.75,11.75-11.75h.36v-.89Z"/>
</svg>