<?xml version="1.0" encoding="UTF-8" standalone="no" ?>
<!DOCTYPE svg PUBLIC "-//W3C//DTD SVG 1.1//EN" "http://www.w3.org/Graphics/SVG/1.1/DTD/svg11.dtd">
<svg xmlns="http://www.w3.org/2000/svg" xmlns:xlink="http://www.w3.org/1999/xlink" version="1.1" width="127" height="126" viewBox="0 0 127 126" xml:space="preserve">
<desc>Created with Fabric.js 3.6.3</desc>
<defs>
</defs>
<g transform="matrix(1 0 0 1 64 63)"  >
<polygon style="stroke: rgb(0,0,0); stroke-width: 0; stroke-dasharray: none; stroke-linecap: butt; stroke-dashoffset: 0; stroke-linejoin: miter; stroke-miterlimit: 4; fill: rgb(149,206,255); fill-rule: nonzero; opacity: 1;" vector-effect="non-scaling-stroke"  points="-50,-50 -50,50 50,50 50,-50 " />
</g>
<g transform="matrix(1 0 0 1 63.5 63.38)"  >
<path style="stroke: none; stroke-width: 1; stroke-dasharray: none; stroke-linecap: butt; stroke-dashoffset: 0; stroke-linejoin: miter; stroke-miterlimit: 4; fill: rgb(5,9,73); fill-rule: evenodd; opacity: 1;"  transform=" translate(-64, -63.88)" d="M 50.246 41.616 c -3.682 -0.925 -7.369 -0.628 -11.26 -0.022 c 0 6.805 -0.014 13.427 0.037 20.05 c 0.002 0.339 0.511 0.929 0.841 0.974 c 4.243 0.573 8.463 0.619 12.431 -1.315 c 4.105 -2 6.196 -6.182 5.654 -11.092 c -0.492 -4.471 -3.139 -7.448 -7.703 -8.595 z M 127 63.963 V 3.285 c 0 -2.096 0.023 -2.285 -2.012 -2.285 H 3.479 C 1.5 1 1 1.19 1 3.186 v 121.509 c 0 2.018 0.252 2.021 2.209 2.021 c 40.555 0.001 81.231 -0.009 121.786 0.037 c 1.573 0.002 1.995 -0.417 1.991 -1.959 c -0.054 -20.277 0.014 -40.556 0.014 -60.831 z m -70.648 5.84 C 50.795 71.785 45 71.896 39 71.431 V 94 H 28 v -1.402 c 0 -18.895 -0.087 -37.788 -0.14 -56.682 c -0.006 -1.569 0.243 -2.327 2.011 -2.507 c 8.332 -0.852 16.617 -1.81 24.902 0.133 c 8.906 2.087 14.041 7.975 14.431 16.11 c 0.483 10.074 -3.944 16.974 -12.852 20.151 z m 44.31 12.754 c -0.424 5.771 -3.678 9.56 -9.015 11.392 c -7.142 2.452 -14.245 1.883 -21.225 -0.891 c -1.143 -0.455 -1.364 -1.031 -0.987 -2.196 c 0.687 -2.126 1.19 -4.312 1.72 -6.286 c 2.951 0.866 5.757 1.947 8.664 2.458 c 2.053 0.361 4.272 0.149 6.359 -0.178 c 1.871 -0.294 3.217 -1.564 3.524 -3.572 c 0.312 -2.041 -0.303 -3.809 -2.105 -4.895 c -1.432 -0.862 -3.01 -1.479 -4.523 -2.202 c -2.433 -1.163 -5.026 -2.075 -7.27 -3.53 c -8.831 -5.727 -5.956 -16.383 -0.063 -20.396 c 3.153 -2.146 6.642 -3.098 10.377 -3.229 c 4.393 -0.154 8.623 0.604 12.778 2.623 l -2.195 7.789 c -1.74 -0.616 -3.36 -1.416 -5.07 -1.734 c -2.029 -0.378 -4.157 -0.589 -6.205 -0.422 c -2.746 0.225 -4.354 2.12 -4.354 4.47 c 0 1.392 0.528 2.57 1.689 3.245 c 1.666 0.969 3.434 1.768 5.186 2.579 c 1.896 0.877 3.898 1.551 5.723 2.552 c 4.87 2.67 7.405 6.8 6.992 12.423 z" stroke-linecap="round" />
</g>
</svg>